<svg width="17" height="17" viewBox="0 0 17 17" fill="none" xmlns="http://www.w3.org/2000/svg">
<path d="M11.5938 7.86914C11.9396 7.86934 12.2253 8.15514 12.2256 8.50098C12.2256 8.84702 11.9397 9.13359 11.5938 9.13379H5.41113C5.06517 9.13354 4.7793 8.84699 4.7793 8.50098C4.77954 8.15517 5.06532 7.86939 5.41113 7.86914H11.5938Z" fill="#5A5A5C" stroke="#5A5A5C" stroke-width="0.10625"/>
<path d="M8.49707 4.77539C8.84308 4.77539 9.12964 5.06127 9.12988 5.40723V11.5898C9.12969 11.9358 8.84311 12.2217 8.49707 12.2217C8.15123 12.2214 7.86543 11.9357 7.86523 11.5898V5.40723C7.86548 5.06142 8.15126 4.77564 8.49707 4.77539Z" fill="#5A5A5C" stroke="#5A5A5C" stroke-width="0.10625"/>
<path d="M10.8203 0.134766C12.9242 0.134766 14.4386 0.583302 15.4258 1.57031C16.4129 2.55739 16.8623 4.07191 16.8623 6.17578V10.8125C16.8623 12.9166 16.4129 14.4308 15.4258 15.418C14.4386 16.4051 12.9244 16.8545 10.8203 16.8545H6.18359C4.07973 16.8544 2.5652 16.405 1.57812 15.418C0.591114 14.4308 0.142578 12.9164 0.142578 10.8125V6.17578C0.142629 4.07191 0.591046 2.55739 1.57812 1.57031C2.5652 0.583234 4.07973 0.134816 6.18359 0.134766H10.8203ZM6.18359 1.39941C4.4064 1.39946 3.21731 1.71628 2.4707 2.46289C1.7241 3.2095 1.40727 4.39859 1.40723 6.17578V10.8125C1.40723 12.5897 1.72417 13.7787 2.4707 14.5254C3.21731 15.272 4.4064 15.5888 6.18359 15.5889H10.8203C12.5977 15.5889 13.7865 15.272 14.5332 14.5254C15.2799 13.7787 15.5967 12.5899 15.5967 10.8125V6.17578C15.5966 4.39859 15.2798 3.2095 14.5332 2.46289C13.7865 1.71636 12.5976 1.39941 10.8203 1.39941H6.18359Z" fill="#5A5A5C" stroke="#5A5A5C" stroke-width="0.10625"/>
</svg>
