<svg width="18" height="19" viewBox="0 0 18 19" fill="none" xmlns="http://www.w3.org/2000/svg">
<path d="M5.73645 17.1046H12.2819C15.571 17.1046 16.1601 15.7873 16.3319 14.1837L16.9455 7.63822C17.1665 5.64185 16.5937 4.01367 13.1001 4.01367H4.91827C1.42463 4.01367 0.851907 5.64185 1.07282 7.63822L1.68645 14.1837C1.85827 15.7873 2.44736 17.1046 5.73645 17.1046Z" stroke="#5A5A5C" stroke-width="1.48235" stroke-miterlimit="10" stroke-linecap="round" stroke-linejoin="round"/>
<path d="M5.73438 4.01296V3.35842C5.73438 1.91023 5.73437 0.740234 8.35256 0.740234H9.66165C12.2798 0.740234 12.2798 1.91023 12.2798 3.35842V4.01296" stroke="#5A5A5C" stroke-width="1.48235" stroke-miterlimit="10" stroke-linecap="round" stroke-linejoin="round"/>
<path d="M10.6438 9.7381V10.5563C10.6438 10.5645 10.6438 10.5645 10.6438 10.5726C10.6438 11.4645 10.6356 12.1926 9.00746 12.1926C7.38746 12.1926 7.37109 11.4726 7.37109 10.5808V9.7381C7.37109 8.91992 7.37109 8.91992 8.18928 8.91992H9.82564C10.6438 8.91992 10.6438 8.91992 10.6438 9.7381Z" stroke="#5A5A5C" stroke-width="1.48235" stroke-miterlimit="10" stroke-linecap="round" stroke-linejoin="round"/>
<path d="M16.8958 8.09961C15.0058 9.47415 12.8458 10.2923 10.6367 10.5705" stroke="#5A5A5C" stroke-width="1.48235" stroke-miterlimit="10" stroke-linecap="round" stroke-linejoin="round"/>
<path d="M1.33203 8.32617C3.17294 9.58617 5.25112 10.3471 7.37021 10.5844" stroke="#5A5A5C" stroke-width="1.48235" stroke-miterlimit="10" stroke-linecap="round" stroke-linejoin="round"/>
</svg>
