<svg width="17" height="17" viewBox="0 0 17 17" fill="none" xmlns="http://www.w3.org/2000/svg">
<path d="M12.3643 13.4731H9.27344L5.83479 15.7603C5.32479 16.1003 4.63707 15.7372 4.63707 15.119V13.4731C2.31889 13.4731 0.773438 11.9276 0.773438 9.60942V4.97301C0.773438 2.65483 2.31889 1.10938 4.63707 1.10938H12.3643C14.6825 1.10938 16.228 2.65483 16.228 4.97301V9.60942C16.228 11.9276 14.6825 13.4731 12.3643 13.4731Z" stroke="#5A5A5C" stroke-width="1.5" stroke-miterlimit="10" stroke-linecap="round" stroke-linejoin="round"/>
<path d="M8.50146 8.00852V7.84628C8.50146 7.32083 8.82602 7.04263 9.15057 6.81854C9.46739 6.60218 9.78416 6.324 9.78416 5.814C9.78416 5.10309 9.21237 4.53125 8.50146 4.53125C7.79055 4.53125 7.21875 5.10309 7.21875 5.814" stroke="#5A5A5C" stroke-width="1.5" stroke-linecap="round" stroke-linejoin="round"/>
<path d="M8.49617 9.85511H8.50312" stroke="#5A5A5C" stroke-width="1.5" stroke-linecap="round" stroke-linejoin="round"/>
</svg>
