<svg width="18" height="18" viewBox="0 0 18 18" fill="none" xmlns="http://www.w3.org/2000/svg">
<g clip-path="url(#clip0_4002_16906)">
<path d="M6.6777 8.09321C6.59588 8.08503 6.4977 8.08503 6.4077 8.09321C4.46043 8.02776 2.91406 6.4323 2.91406 4.46867C2.91406 2.46412 4.53406 0.835938 6.54679 0.835938C8.55134 0.835938 10.1795 2.46412 10.1795 4.46867C10.1713 6.4323 8.62497 8.02776 6.6777 8.09321Z" stroke="#5A5A5C" stroke-width="1.48235" stroke-linecap="round" stroke-linejoin="round"/>
<path d="M12.6064 2.46094C14.1936 2.46094 15.47 3.74548 15.47 5.32457C15.47 6.87094 14.2427 8.13094 12.7127 8.18821C12.6473 8.18003 12.5736 8.18003 12.5 8.18821" stroke="#5A5A5C" stroke-width="1.48235" stroke-linecap="round" stroke-linejoin="round"/>
<path d="M2.57875 11.1073C0.59875 12.4328 0.59875 14.5928 2.57875 15.9101C4.82875 17.4155 8.51875 17.4155 10.7688 15.9101C12.7488 14.5846 12.7488 12.4246 10.7688 11.1073C8.52693 9.61006 4.83693 9.61006 2.57875 11.1073Z" stroke="#5A5A5C" stroke-width="1.4625" stroke-linecap="round" stroke-linejoin="round"/>
<path d="M14.1875 15.5575C14.7766 15.4348 15.333 15.1975 15.7911 14.8457C17.0675 13.8884 17.0675 12.3093 15.7911 11.3521C15.3411 11.0084 14.793 10.7793 14.212 10.6484" stroke="#5A5A5C" stroke-width="1.48235" stroke-linecap="round" stroke-linejoin="round"/>
</g>
<defs>
<clipPath id="clip0_4002_16906">
<rect width="18" height="18" fill="white"/>
</clipPath>
</defs>
</svg>
