<svg width="18" height="18" viewBox="0 0 18 18" fill="none" xmlns="http://www.w3.org/2000/svg">
<g clip-path="url(#clip0_4002_16956)">
<path d="M8.99751 11.4638C10.3531 11.4638 11.4521 10.3648 11.4521 9.00923C11.4521 7.65362 10.3531 6.55469 8.99751 6.55469C7.64191 6.55469 6.54297 7.65362 6.54297 9.00923C6.54297 10.3648 7.64191 11.4638 8.99751 11.4638Z" stroke="#5A5A5C" stroke-width="1.5" stroke-miterlimit="10" stroke-linecap="round" stroke-linejoin="round"/>
<path d="M0.816406 9.72399V8.28399C0.816406 7.43308 1.51186 6.72944 2.37095 6.72944C3.85186 6.72944 4.45732 5.68217 3.71277 4.39762C3.28732 3.66126 3.54095 2.70399 4.2855 2.27853L5.70095 1.46853C6.34732 1.08399 7.18186 1.31308 7.56641 1.95944L7.65641 2.1149C8.39277 3.39944 9.60368 3.39944 10.3482 2.1149L10.4382 1.95944C10.8228 1.31308 11.6573 1.08399 12.3037 1.46853L13.7191 2.27853C14.4637 2.70399 14.7173 3.66126 14.2919 4.39762C13.5473 5.68217 14.1528 6.72944 15.6337 6.72944C16.4846 6.72944 17.1882 7.4249 17.1882 8.28399V9.72399C17.1882 10.5749 16.4928 11.2785 15.6337 11.2785C14.1528 11.2785 13.5473 12.3258 14.2919 13.6104C14.7173 14.3549 14.4637 15.304 13.7191 15.7294L12.3037 16.5394C11.6573 16.924 10.8228 16.6949 10.4382 16.0485L10.3482 15.8931C9.61186 14.6085 8.40095 14.6085 7.65641 15.8931L7.56641 16.0485C7.18186 16.6949 6.34732 16.924 5.70095 16.5394L4.2855 15.7294C3.54095 15.304 3.28732 14.3467 3.71277 13.6104C4.45732 12.3258 3.85186 11.2785 2.37095 11.2785C1.51186 11.2785 0.816406 10.5749 0.816406 9.72399Z" stroke="#5A5A5C" stroke-width="1.5" stroke-miterlimit="10" stroke-linecap="round" stroke-linejoin="round"/>
</g>
<defs>
<clipPath id="clip0_4002_16956">
<rect width="18" height="18" fill="white"/>
</clipPath>
</defs>
</svg>
