<svg width="16" height="15" viewBox="0 0 16 15" fill="none" xmlns="http://www.w3.org/2000/svg">
<path d="M8.73082 5.09375H4.36719" stroke="#5A5A5C" stroke-width="1.4" stroke-linecap="round" stroke-linejoin="round"/>
<path d="M15.2693 6.52304V8.02126C15.2693 8.42126 14.9493 8.7485 14.5421 8.76305H13.1166C12.3311 8.76305 11.6112 8.18851 11.5457 7.40305C11.5021 6.94487 11.6766 6.51578 11.982 6.2176C12.2511 5.94123 12.622 5.78125 13.0293 5.78125H14.5421C14.9493 5.7958 15.2693 6.12304 15.2693 6.52304Z" stroke="#5A5A5C" stroke-width="1.3" stroke-linecap="round" stroke-linejoin="round"/>
<path d="M11.9847 6.22101C11.6793 6.5192 11.5047 6.94829 11.5484 7.40647C11.6138 8.19193 12.3338 8.76647 13.1193 8.76647H14.5447V9.82102C14.5447 12.0028 13.0902 13.4574 10.9084 13.4574H4.36293C2.18111 13.4574 0.726562 12.0028 0.726562 9.82102V4.73011C0.726562 2.75193 1.91929 1.37011 3.77384 1.13738C3.96293 1.10829 4.15929 1.09375 4.36293 1.09375H10.9084C11.0975 1.09375 11.2793 1.10101 11.4538 1.1301C13.3302 1.34829 14.5447 2.73739 14.5447 4.73011V5.78467H13.032C12.6247 5.78467 12.2538 5.94465 11.9847 6.22101Z" stroke="#5A5A5C" stroke-width="1.4" stroke-linecap="round" stroke-linejoin="round"/>
</svg>
